<?xml version="1.0" encoding="utf-8" ?><svg xmlns="http://www.w3.org/2000/svg" xmlns:xlink="http://www.w3.org/1999/xlink" width="952" height="1418" viewBox="0 0 952 1418"><path fill="#65F9FA" transform="scale(1.21429 1.21404)" d="M232.092 421.176C243.126 420.702 255.801 420.969 266.941 420.96L327.885 420.867L537.817 420.735C530.082 429.399 520.567 438.564 512.273 446.819L472.303 486.695L331.652 627.332C320.321 638.696 308.924 649.994 297.463 661.228C287.438 670.932 271.642 685.95 262.901 696.451L398.742 696.372C426.577 696.367 456.013 695.953 483.706 696.852C477.944 704.939 419.93 763.098 414.315 766.496L298.49 766.45L170.307 766.457C144.181 766.476 116.293 766.02 90.3203 767.066C109.528 746.983 130.404 727.553 150.091 707.875L268.063 589.814C291.814 565.903 315.723 542.151 339.789 518.558C347.643 510.857 358.088 499.518 365.931 492.644C339.739 492.979 313.352 492.432 287.055 492.741C274.411 492.89 257.323 491.931 245.038 494.031C241.524 494.631 236.35 499.317 234.6 502.963C233.326 505.584 232.93 508.545 233.471 511.408C234.379 516.367 239.544 526.809 241.665 531.762C246.964 544.136 253.659 557.285 258.16 569.928C222.366 545.996 185.457 516.36 149.443 493.431C156.751 446.49 185.286 423.266 232.092 421.176Z"/><path fill="#5387FE" transform="scale(1.21429 1.21404)" d="M228.892 425.12C237.947 424.431 252.865 424.875 262.187 424.884L325.951 424.88L438.052 424.84C467.971 424.681 497.89 424.727 527.808 424.978C525.986 427.643 514.84 438.657 511.951 441.587C499.749 454.042 487.455 466.405 475.067 478.676L348.376 605.511C339.484 614.336 256.011 696.364 255.792 699.189C257.637 700.399 265.099 700.177 267.687 700.205C336.535 700.942 405.899 699.069 474.694 700.521C468.866 707.845 457.087 719.4 450.394 726.073L413.368 762.804C402.771 763.364 388.352 762.963 377.481 762.946L312.175 762.954L100.376 762.897C108.261 755.255 116.214 746.705 124.05 738.879L199.427 663.39L374.323 489.46C340.717 490.679 306.55 489.244 272.849 489.701C255.758 489.932 229.942 486.079 229.558 510.89C229.496 514.854 233.964 522.92 235.443 526.842C240.01 537.438 245.063 548.14 249.015 559.048C228.156 542.857 204.97 528.659 183.89 512.544C174.311 505.221 163.506 499.155 154.31 491.158C158.362 460.668 175.572 437.607 205.595 428.746C213.676 426.361 220.511 425.793 228.892 425.12Z"/><path fill="#F9A3ED" transform="scale(1.21429 1.21404)" d="M567.231 424.119C611.786 433.479 647.537 474.361 647.946 520.006C648.181 546.108 639.702 565.669 623.76 585.571C628.041 589.088 631.952 592.381 635.909 596.271C653.955 613.744 664.201 637.754 664.331 662.875C664.486 690.653 654.477 715.542 634.843 735.027C599.477 770.125 567.99 766.302 523.035 766.705L448.442 767.083C453.828 760.421 466.387 748.582 472.896 741.939C487.44 727.096 502.675 710.825 517.693 696.578C527.472 697.372 542.971 696.95 553.219 696.946C562.195 696.847 570.356 694.533 576.764 688.061C583.298 681.461 587.961 674.717 588.063 665.289C588.205 655.633 584.487 646.32 577.734 639.419C565.312 626.912 549.824 628.559 533.716 628.653L502.317 628.8L364.545 629.14C387.143 605.535 410.149 582.325 433.552 559.519C458.374 559.526 483.196 559.675 508.016 559.966C512.482 560 516.985 560.128 521.449 560.061C536.814 559.829 549.426 562.564 561.621 550.845C568.244 544.541 572.042 535.828 572.153 526.684C572.258 512.464 560.924 497.022 547.356 494.124C533.874 491.245 514.233 492.587 500.183 492.758C507.394 484.601 515.491 477.227 523.082 469.429C537.641 454.472 553.181 439.49 567.231 424.119Z"/><path fill="#FE3FB4" transform="scale(1.21429 1.21404)" d="M568.676 428.309C640.349 446.493 669.981 531.581 618.138 586.085C623.205 589.433 627.914 593.293 632.193 597.603C650.137 615.59 660.664 638.107 660.592 663.741C660.71 689.665 650.459 714.56 632.122 732.881C598.512 766.305 567.556 763.223 524.167 763.136L457.101 762.979C471.349 749.03 485.423 734.904 499.32 720.605C505.198 714.639 513.309 705.8 519.314 700.458C527.773 700.433 556.154 701.101 562.633 699.696C579.348 694.537 591.079 682.827 591.448 664.455C591.556 654.31 587.59 644.545 580.439 637.349C567.803 624.452 551.008 625.45 534.338 625.305C524.39 625.219 514.447 625.404 504.482 625.326L373.794 625.05C378.599 620.527 384.028 614.535 388.763 609.722L417.95 580.278C422.139 576.044 430.6 566.847 434.846 563.536L504.835 563.493C518.118 563.51 535.309 564.434 548.216 562.102C563.134 559.406 575.077 543.266 575.642 528.121C575.917 518.264 572.283 508.697 565.533 501.509C550.656 485.644 528.934 489.582 508.792 489.048C514.882 481.925 529.348 468.131 536.464 461.071C546.479 451.134 558.796 437.316 568.676 428.309Z"/></svg>